<svg version="1.1" xmlns="http://www.w3.org/2000/svg" height="986" width="1024" viewBox="0 0 1063 1024"><path d="M361.420446 4.245747c-42.281723 13.129043-65.800285 78.722571-100.121879 110.408018-3.256416 2.842903-6.564522 5.168915-9.872627 7.546616l9.872627 11.733436 212.907598 262.219045c20.675659 21.657753 33.3395 16.95404 36.647606-13.594246l18.814849-350.607486c-48.897933 0-124.570845-40.886116-168.248174-27.705383zM261.298567 162.104402l-21.140861-28.635787c-38.508415 30.083084-123.588751 35.251998-148.968122 72.830008-27.757072 39.490509 0.465202 110.459708-14.111138 155.584334l184.220121 46.05503 164.94007 41.351318c29.617881 3.721619 36.699295-7.081413 20.210456-33.391189zM423.447423 489.193327L261.298567 436.573775l-186.08093-59.649276C63.949403 421.997435-0.920477 475.133879 0.009928 520.723707c0.930405 48.381042 66.317176 88.801955 76.655005 137.234686l184.633634-68.436431 164.94007-61.096572c26.826667-14.783096 25.379371-27.446937-2.791214-39.232063zM988.306425 380.180915l-274.417684 85.287093-71.434401 22.071266c-27.757072 12.250328-27.757072 25.379371 0 39.025306l71.434401 27.705383 271.161267 104.825591c17.367554-46.05503 77.533721-90.714454 77.998924-135.839079 0.465202-48.587798-63.422584-96.555327-74.742507-143.07556zM817.732238 124.991595c-34.786796-25.844574-67.195892-87.87155-103.843497-113.250922a58.873939 58.873939 0 0 0-15.971946-8.47702c-45.589828-15.971947-110.459708 31.995582-157.910345 29.617881l13.129043 352.468296c4.23851 30.083084 16.95404 33.856391 37.629699 10.803032l123.123549-147.055625zM641.007044 449.961264l72.881697-17.884445 273.487279-67.661094c-15.041542-46.985435 6.616211-125.50125-19.745254-162.614057-27.240181-39.490509-108.547209-38.973617-145.660018-68.591499l-108.082007 150.622175-96.813773 135.373877c-14.111137 26.309776-6.099319 36.647605 23.932076 30.755043z" fill="#FFB52E"></path><path d="M530.133823 535.765248l453.985781 136.459349c-11.785126 50.758743 5.634117 104.360388-25.379372 152.276228s-109.529303 45.124626-154.653929 77.998924-56.858062 100.121878-108.082007 117.489432-105.704306-27.29187-161.631963-27.29187-114.698218 43.729019-167.782972 25.844573-68.643188-86.475943-112.78572-120.332334-119.867133-32.874298-148.50292-77.533721-9.407425-102.44789-20.675659-149.433325z" fill="#E60012"></path></svg>