<?xml version="1.0" standalone="no"?><!DOCTYPE svg PUBLIC "-//W3C//DTD SVG 1.1//EN" "http://www.w3.org/Graphics/SVG/1.1/DTD/svg11.dtd"><svg class="icon" width="200px" height="200.00px" viewBox="0 0 1024 1024" version="1.1" xmlns="http://www.w3.org/2000/svg"><path d="M173.7 715h688v90.2h-688zM534.6 534.6h90.2l-141 169.1 39.5-124h-79L512 455.6h67.7l-45.1 79M602.2 331.6v-56.4c0-6.2-5-11.3-11.3-11.3H433.1c-6.2 0-11.3 5-11.3 11.3v56.4h-45.1v-67.7c0-24.9 20.2-45.1 45.1-45.1h180.4c24.9 0 45.1 20.2 45.1 45.1v67.7" fill="#54FEBD" /><path d="M839.7 842.6H184.3c-20.3 0-36.8-16.5-36.8-36.8v-68.3c0-8.2 6.7-14.9 14.9-14.9h699.2c8.2 0 14.9 6.6 14.9 14.9v68.3c0 20.3-16.5 36.8-36.8 36.8z m-662.5-90.2v53.4c0 3.9 3.2 7.1 7.1 7.1h655.3c3.9 0 7.1-3.2 7.1-7.1v-53.4H177.2zM861.6 391.5H162.4c-8.2 0-14.9-6.7-14.9-14.9V331c0-20.3 16.5-36.8 36.8-36.8h655.3c20.3 0 36.8 16.5 36.8 36.8v45.7c0.1 8.2-6.6 14.8-14.8 14.8z m-684.4-29.7h669.5V331c0-3.9-3.2-7.1-7.1-7.1H184.3c-3.9 0-7.1 3.2-7.1 7.1v30.8z" fill="#1D1B4C" /><path d="M827.8 752.4H196.2c-8.2 0-14.9-6.6-14.9-14.9V376.7c0-8.2 6.7-14.9 14.9-14.9h631.6c8.2 0 14.9 6.7 14.9 14.9v360.9c-0.1 8.2-6.7 14.8-14.9 14.8z m-616.7-29.7h601.8V391.5H211.1v331.2zM331.6 323.9H218.8c-8.2 0-14.9-6.7-14.9-14.9v-34.4c0-20.3 16.5-36.8 36.8-36.8h68.9c20.3 0 36.8 16.5 36.8 36.8V309c0 8.2-6.6 14.9-14.8 14.9z m-98-29.8h83.1v-19.6c0-3.9-3.2-7.1-7.1-7.1h-68.9c-3.9 0-7.1 3.2-7.1 7.1v19.6zM805.2 323.9H692.4c-8.2 0-14.9-6.7-14.9-14.9v-34.4c0-20.3 16.5-36.8 36.8-36.8h68.9c20.3 0 36.8 16.5 36.8 36.8V309c0.1 8.2-6.6 14.9-14.8 14.9z m-97.9-29.8h83.1v-19.6c0-3.9-3.2-7.1-7.1-7.1h-68.9c-3.9 0-7.1 3.2-7.1 7.1v19.6z" fill="#1D1B4C" /><path d="M461.2 696c-2.4 0-4.9-0.6-7.1-1.8-6.2-3.4-9.2-10.8-7-17.5L480.4 572h-58.6c-5.2 0-10.1-2.8-12.8-7.3-2.7-4.5-2.8-10.1-0.3-14.7l67.7-124.1c2.6-4.8 7.6-7.7 13-7.7h67.7c5.3 0 10.2 2.8 12.8 7.4 2.7 4.6 2.7 10.2 0.1 14.8l-32.4 56.7h64.6c5.8 0 11 3.3 13.5 8.6 2.4 5.2 1.6 11.4-2 15.8l-141 169.2c-2.9 3.5-7.2 5.3-11.5 5.3z m-14.4-153.7h53.9c4.7 0 9.2 2.3 12 6.1 2.8 3.8 3.6 8.8 2.2 13.3l-16.5 51.7 72.1-86.5H512c-5.3 0-10.2-2.8-12.8-7.4-2.7-4.6-2.7-10.2-0.1-14.8l32.4-56.7h-33.2l-51.5 94.3zM241.3 842.6c-8.2 0-14.9-6.6-14.9-14.9v-90.2c0-8.2 6.7-14.9 14.9-14.9s14.9 6.6 14.9 14.9v90.2c0 8.3-6.7 14.9-14.9 14.9zM309 842.6c-8.2 0-14.9-6.6-14.9-14.9v-90.2c0-8.2 6.7-14.9 14.9-14.9s14.9 6.6 14.9 14.9v90.2c0 8.3-6.7 14.9-14.9 14.9zM376.7 842.6c-8.2 0-14.9-6.6-14.9-14.9v-90.2c0-8.2 6.7-14.9 14.9-14.9s14.9 6.6 14.9 14.9v90.2c-0.1 8.3-6.7 14.9-14.9 14.9zM444.3 842.6c-8.2 0-14.9-6.6-14.9-14.9v-90.2c0-8.2 6.7-14.9 14.9-14.9s14.9 6.6 14.9 14.9v90.2c0 8.3-6.7 14.9-14.9 14.9zM512 842.6c-8.2 0-14.9-6.6-14.9-14.9v-90.2c0-8.2 6.7-14.9 14.9-14.9s14.9 6.6 14.9 14.9v90.2c0 8.3-6.7 14.9-14.9 14.9zM579.7 842.6c-8.2 0-14.9-6.6-14.9-14.9v-90.2c0-8.2 6.7-14.9 14.9-14.9s14.9 6.6 14.9 14.9v90.2c-0.1 8.3-6.7 14.9-14.9 14.9zM647.3 842.6c-8.2 0-14.9-6.6-14.9-14.9v-90.2c0-8.2 6.7-14.9 14.9-14.9s14.9 6.6 14.9 14.9v90.2c0 8.3-6.7 14.9-14.9 14.9zM715 842.6c-8.2 0-14.9-6.6-14.9-14.9v-90.2c0-8.2 6.7-14.9 14.9-14.9s14.9 6.6 14.9 14.9v90.2c0 8.3-6.7 14.9-14.9 14.9zM782.7 842.6c-8.2 0-14.9-6.6-14.9-14.9v-90.2c0-8.2 6.7-14.9 14.9-14.9s14.9 6.6 14.9 14.9v90.2c-0.1 8.3-6.7 14.9-14.9 14.9zM647.3 323.9c-8.2 0-14.9-6.7-14.9-14.9v-67.7c0-16.7-13.6-30.3-30.3-30.3H421.8c-16.7 0-30.3 13.6-30.3 30.3V309c0 8.2-6.7 14.9-14.9 14.9s-14.9-6.7-14.9-14.9v-67.7c0-33.1 26.9-60 60-60h180.4c33.1 0 60 26.9 60 60V309c0.1 8.2-6.6 14.9-14.8 14.9z" fill="#1D1B4C" /><path d="M602.2 323.9c-8.2 0-14.9-6.7-14.9-14.9v-52.8H436.6V309c0 8.2-6.7 14.9-14.9 14.9s-14.9-6.7-14.9-14.9v-56.4c0-14.4 11.7-26.1 26.1-26.1h157.9c14.4 0 26.1 11.7 26.1 26.1V309c0.2 8.2-6.5 14.9-14.7 14.9z" fill="#1D1B4C" /></svg>