<?xml version="1.0" standalone="no"?><!DOCTYPE svg PUBLIC "-//W3C//DTD SVG 1.1//EN" "http://www.w3.org/Graphics/SVG/1.1/DTD/svg11.dtd"><svg class="icon" width="200px" height="200.00px" viewBox="0 0 1024 1024" version="1.1" xmlns="http://www.w3.org/2000/svg"><path fill="#333333" d="M330.048 985.152H76.544L126.592 250.24h153.344l50.112 734.976zM126.72 938.24h153.088L236.16 297.088H170.432L126.72 938.24z"  /><path fill="#333333" d="M0 422.208h398.72v46.912H0zM23.488 351.872H70.4v70.336H23.488zM328.384 351.872h46.912v70.336h-46.912zM0 938.24h398.72v46.912H0zM903.68 977.344H627.008L681.984 0h166.656l55.04 977.344z m-227.2-46.912h177.6L804.288 46.912H726.4l-49.792 883.52z"  /><path fill="#333333" d="M539.52 164.224h445.632v46.912H539.52zM562.944 93.824h46.912v70.4h-46.912zM539.52 938.24h469.12v46.912H539.52z"  /><path fill="#333333" d="M674.56 238.592l33.152-33.152L864 361.6l-33.152 33.216zM124.032 483.648l33.408-32.96 144.64 146.624-33.472 32.96zM111.616 778.112l33.152-33.216 176.768 176.768-33.216 33.152z"  /><path fill="#333333" d="M665.088 497.92l151.872-151.808 33.152 33.216-151.872 151.808zM102.144 755.968L253.952 604.16l33.216 33.152-151.872 151.872z"  /><path fill="#333333" d="M674.56 496.64l33.152-33.216 173.824 173.824-33.152 33.152z"  /><path fill="#333333" d="M650.432 794.112l166.528-166.528 33.152 33.216-166.528 166.464z"  /><path fill="#333333" d="M675.2 825.6l31.872-34.432 159.232 147.52-31.872 34.432zM913.28 196.16l-28.352-37.312c28.544-21.248 55.36-44.736 80.128-70.208l34.56 31.68c-26.624 27.584-55.488 52.992-86.336 75.84zM333.44 394.048c-7.808 0-15.616-0.064-23.424-0.256l1.152-46.912c126.08 3.2 251.392-20.48 367.552-69.376l18.112 43.264a937.216 937.216 0 0 1-363.328 73.28z"  /><path fill="#333333" d="M25.792 399.04a812.8 812.8 0 0 1-20.416-0.256l1.152-46.912a782.208 782.208 0 0 0 559.744-221.12l34.56 31.68A818.24 818.24 0 0 1 25.856 399.04z"  /></svg>