<?xml version="1.0" standalone="no"?><!DOCTYPE svg PUBLIC "-//W3C//DTD SVG 1.1//EN" "http://www.w3.org/Graphics/SVG/1.1/DTD/svg11.dtd"><svg class="icon" width="200px" height="171.67px" viewBox="0 0 1193 1024" version="1.1" xmlns="http://www.w3.org/2000/svg"><path fill="#333333" d="M273.258684 504.498168a267.678988 267.678988 0 0 1-98.887779-208.261072C174.285657 148.502165 293.036239 28.813853 439.577698 28.813853c146.626707 0 265.377289 119.77356 265.377289 267.423243a267.678988 267.678988 0 0 1-98.887778 208.261072 442.949051 442.949051 0 0 1 269.895437 462.726607h-95.477855c2.557443-17.475857 3.921412-35.122211 3.921412-52.853813 0-191.808192-154.299034-347.385947-344.828505-347.385947-190.444222 0-344.828505 155.577756-344.828505 347.385947 0 17.902098 1.363969 35.6337 4.00666 52.853813H3.363246a442.949051 442.949051 0 0 1 269.980686-462.726607z m166.404262-36.315684a171.348651 171.348651 0 0 0 170.751915-171.945388 171.348651 171.348651 0 0 0-170.751915-172.030636 171.348651 171.348651 0 0 0-170.666667 172.030636A171.348651 171.348651 0 0 0 439.662946 468.182484zM748.175767 1.022977c146.45621 0 265.121545 119.688312 265.121545 267.423243a267.678988 267.678988 0 0 1-98.887779 208.261073 443.034299 443.034299 0 0 1 269.81019 462.897103h-95.477856c2.727939-17.561106 4.00666-35.207459 4.00666-52.853813 0-191.89344-154.299034-347.471195-344.57276-347.471196h1.108225a49.443889 49.443889 0 1 1 0-98.802531h-1.108225a171.348651 171.348651 0 0 0 170.581418-172.030636 171.348651 171.348651 0 0 0-170.581418-172.030636c-6.649351 0-14.321678 0.852481-23.102231 2.386947a42.197802 42.197802 0 0 1-49.44389-37.253413 53.535798 53.535798 0 0 1 46.204462-58.565435C731.97863 1.704962 740.759183 1.022977 748.175767 1.022977z"  /></svg>