<?xml version="1.0" standalone="no"?><!DOCTYPE svg PUBLIC "-//W3C//DTD SVG 1.1//EN" "http://www.w3.org/Graphics/SVG/1.1/DTD/svg11.dtd"><svg class="icon" width="200px" height="200.00px" viewBox="0 0 1024 1024" version="1.1" xmlns="http://www.w3.org/2000/svg"><path fill="#1296db" d="M508.865003 538.880474c43.220958 0 78.249924-34.644966 78.249924-77.226925 0-42.665958-34.985966-77.183925-78.249924-77.183924s-78.249924 34.559966-78.249924 77.226924c0 42.538958 34.985966 77.183925 78.249924 77.183925z m-33.151968 56.319945L427.372083 1024h161.279842L540.139973 595.243419h-64.426938z m361.940647 13.951986a2603.218458 2603.218458 0 0 0-201.599803-132.095871 10.40999 10.40999 0 0 0-9.855991-0.426999 10.15499 10.15499 0 0 0-5.929994 7.679992 108.329894 108.329894 0 0 1-40.31996 67.413934 10.45299 10.45299 0 0 0-3.967996 8.959991c0.256 3.412997 2.303998 6.527994 5.332994 8.361992 134.399869 73.045929 293.204714 151.167852 338.68767 152.319852 4.949995-0.128 11.689989-0.809999 16.554983-7.551993a16.042984 16.042984 0 0 0 2.089998-7.892992c-4.052996-25.044976-43.349958-52.394949-100.991901-96.767906zM470.59304 363.691645a10.58099 10.58099 0 0 1-14.164986-9.94199c2.004998-125.481877 12.671988-255.99975 27.859973-315.647692 6.699993-19.199981 6.613994-33.876967 26.069975-38.100963 19.626981 4.266996 19.369981 18.858982 26.111974 38.100963 5.205995 20.01098 9.727991 47.573954 13.525987 80.511921 7.807992 65.493936 13.139987 151.637852 14.377986 235.093771a10.60999 10.60999 0 0 1-4.521996 8.703991 9.727991 9.727991 0 0 1-5.973994 1.961998 10.15499 10.15499 0 0 1-3.753996-0.681999 113.620889 113.620889 0 0 0-39.765961-7.551993c-13.909986 0-27.220973 2.857997-39.764962 7.551993z m-28.500972 195.199809a10.75199 10.75199 0 0 1-5.461994 8.233992C303.170204 639.660375 150.465353 710.656306 104.812398 711.680305c-5.333995-0.128-12.287988-0.341-17.279983-7.679993a14.335986 14.335986 0 0 1-2.219998-7.892992c4.053996-25.173975 42.239959-50.85895 98.816903-93.311909 56.191945-40.234961 129.834873-87.594914 200.319805-128.981874a10.36799 10.36799 0 0 1 15.658984 7.423993 109.226893 109.226893 0 0 0 38.271963 68.607933c2.644997 2.175998 4.052996 5.631995 3.711996 9.045991z"  /></svg>