<?xml version="1.0" standalone="no"?><!DOCTYPE svg PUBLIC "-//W3C//DTD SVG 1.1//EN" "http://www.w3.org/Graphics/SVG/1.1/DTD/svg11.dtd"><svg class="icon" width="200px" height="200.00px" viewBox="0 0 1024 1024" version="1.1" xmlns="http://www.w3.org/2000/svg"><path fill="#333333" d="M520.192 232.96l1.024 75.776h138.24L645.12 232.96z m304.64 75.776l-30.208-75.776H669.696l17.408 75.776z m46.08 115.2L832 326.656H690.688l22.016 97.28zM710.656 578.56l-25.088-131.072H523.776l2.048 131.072z m-29.184-154.624l-18.944-97.28h-140.8l1.536 97.28z m-353.28-115.2l16.896-75.776H235.52l-14.848 0.512-5.632 12.8-25.088 62.464z m166.912-75.776H370.176l-14.336 75.776h137.728z m-1.536 93.696H352.256l-18.432 97.28H491.52z m-2.048 120.832H329.216L304.128 578.56H488.96zM324.096 326.656H182.784l-38.4 97.28H302.08zM82.432 578.56h184.832l29.696-131.072H134.656z m849.92 0l-52.224-131.072H718.336L747.52 578.56zM603.648 903.68H417.792l33.28-325.12h119.296z"  /><path fill="#333333" d="M969.216 565.248l-149.504-320c-5.632-12.288-28.16-22.528-50.176-22.528H251.392c-22.016 0-44.032 9.728-50.176 22.528l-149.504 320c-13.312 28.672 3.584 53.76 38.912 53.76H929.28c36.352-0.512 53.248-25.088 39.936-53.76z m-215.04-1.536H98.304l43.52-103.936-0.512-0.512 91.136-215.04 556.544-2.048 84.992 202.24-0.512 0.512 50.176 118.784H754.176z"  /></svg>