<?xml version="1.0" standalone="no"?><!DOCTYPE svg PUBLIC "-//W3C//DTD SVG 1.1//EN" "http://www.w3.org/Graphics/SVG/1.1/DTD/svg11.dtd"><svg t="1687158023248" class="icon" viewBox="0 0 1024 1024" version="1.1" xmlns="http://www.w3.org/2000/svg" p-id="1355" xmlns:xlink="http://www.w3.org/1999/xlink" width="200" height="200"><path d="M570.889143 306.907429a32.329143 32.329143 0 0 0 43.922286 12.836571l98.048-53.650286a32.329143 32.329143 0 0 0 12.873142-43.958857l-0.804571-1.462857a32.365714 32.365714 0 0 0-43.922286-12.8l-98.048 53.650286a32.365714 32.365714 0 0 0-12.873143 43.885714l0.804572 1.462857z m-130.889143-105.289143l1.609143 0.475428a32.365714 32.365714 0 0 0 40.118857-21.979428l31.414857-107.300572a32.329143 32.329143 0 0 0-21.979428-40.155428l-1.609143-0.475429a32.365714 32.365714 0 0 0-40.082286 21.979429l-31.414857 107.300571a32.365714 32.365714 0 0 0 21.942857 40.155429z m-209.334857 5.705143a32.329143 32.329143 0 0 0 43.922286 12.873142l1.462857-0.804571a32.365714 32.365714 0 0 0 12.873143-43.922286L235.236571 77.348571A32.365714 32.365714 0 0 0 191.350857 64.548571l-1.462857 0.804572a32.365714 32.365714 0 0 0-12.836571 43.885714l53.650285 98.084572zM170.761143 350.281143l0.475428-1.609143a32.365714 32.365714 0 0 0-22.016-40.118857l-107.300571-31.378286a32.365714 32.365714 0 0 0-40.155429 21.942857l-0.438857 1.609143c-5.046857 17.188571 4.790857 35.108571 21.942857 40.155429l107.300572 31.378285a32.365714 32.365714 0 0 0 40.228571-21.979428z m17.846857 163.949714a32.402286 32.402286 0 0 0-43.922286-12.873143l-98.084571 53.686857a32.365714 32.365714 0 0 0-12.909714 43.922286l0.804571 1.462857a32.365714 32.365714 0 0 0 43.922286 12.836572l98.084571-53.650286a32.402286 32.402286 0 0 0 12.836572-43.922286l-0.731429-1.462857z m626.578286 36.278857h-0.804572a276.699429 276.699429 0 0 0-500.553143 121.636572 160.182857 160.182857 0 0 0 40.96 315.245714H762.962286a117.028571 117.028571 0 0 0 20.48-1.243429c7.936 0.841143 15.945143 1.243429 23.954285 1.243429a218.550857 218.550857 0 0 0 7.753143-436.845714v-0.036572z" fill="#000000" p-id="1356"></path><path d="M232.749714 490.971429a166.619429 166.619429 0 0 0 66.267429 66.267428 276.370286 276.370286 0 0 1 247.515428-161.682286 167.497143 167.497143 0 1 0-313.782857 95.451429z" fill="#000000" p-id="1357"></path></svg>