<?xml version="1.0" standalone="no"?><!DOCTYPE svg PUBLIC "-//W3C//DTD SVG 1.1//EN" "http://www.w3.org/Graphics/SVG/1.1/DTD/svg11.dtd"><svg t="1687158322818" class="icon" viewBox="0 0 1024 1024" version="1.1" xmlns="http://www.w3.org/2000/svg" p-id="1699" xmlns:xlink="http://www.w3.org/1999/xlink" width="200" height="200"><path d="M662.997595 249.30556c0-50.076603-19.706466-98.020473-55.024547-133.338554A187.765936 187.765936 0 0 0 475.06104 60.77184a34.294369 34.294369 0 0 0 0 68.759357c62.87301 4.265469 111.755282 56.816044 111.755282 120.030291s-48.882272 115.679513-111.755282 120.030292H34.438115a34.294369 34.294369 0 0 0-29.687662 51.612172 34.294369 34.294369 0 0 0 29.687662 17.147184h440.622925A188.874958 188.874958 0 0 0 662.997595 249.390869zM728.344577 0.543421a34.294369 34.294369 0 0 0-29.772973 51.612172 34.294369 34.294369 0 0 0 29.772973 17.147184 179.917473 179.917473 0 0 1 164.305857 87.015564 180.855876 180.855876 0 0 1 0 186.400985 179.917473 179.917473 0 0 1-164.305857 87.015563 34.294369 34.294369 0 0 0 0 68.759357 248.420902 248.420902 0 0 0 225.216751-120.883385 249.871161 249.871161 0 0 0 0-256.098746A248.420902 248.420902 0 0 0 728.173958 0.543421z m-17.147185 640.076245H171.615591a34.294369 34.294369 0 0 0 0 68.759357h538.30216c66.285385 0 120.030291 53.915525 120.030292 120.286219 0 66.541313-53.744907 120.371529-120.030292 120.371529a34.294369 34.294369 0 0 0 0 68.759357c104.162748 0 188.53372-84.626901 188.533721-189.045576 0-104.418676-84.370972-189.130886-188.533721-189.130886h1.194332z" fill="#000000" p-id="1700"></path></svg>